<svg xmlns="http://www.w3.org/2000/svg" width="32" height="32" viewBox="0 0 32 32" fill="none">
  <circle cx="16" cy="16" r="14" fill="#2563EB" />
  <path d="M22.4,17.7l-1.5-4.8c-0.2-0.6-0.8-1.1-1.5-1.1h-3.6c-0.2,0-0.4,0.2-0.4,0.4v1.2c0,0.2,0.2,0.4,0.4,0.4h3.2
    l0.3,1.1h-3.5c-0.7,0-1.3,0.4-1.5,1l-1.8,4c-0.1,0.3,0,0.7,0.3,0.9c0.3,0.1,0.7,0,0.9-0.3l1.6-3.5H16v3.7c0,0.2,0.2,0.4,0.4,0.4
    h1.2c0.2,0,0.4-0.2,0.4-0.4v-3.7h3.1l0.5,1.6c0.1,0.3,0.4,0.5,0.7,0.5c0.1,0,0.1,0,0.2,0C22.9,18.8,22.6,18.3,22.4,17.7z" fill="white" />
  <circle cx="13.6" cy="9.2" r="2" fill="white" />
  <path d="M13.1,14c-0.9-0.5-1.2-1.7-0.7-2.5c0.5-0.9,1.7-1.2,2.5-0.7c0.9,0.5,1.2,1.7,0.7,2.5C15.1,14.2,14,14.5,13.1,14z" fill="white" />
  <path d="M9.5,22c-1.4,0-2.5-1.1-2.5-2.5c0-1.4,1.1-2.5,2.5-2.5c1.4,0,2.5,1.1,2.5,2.5C12,20.9,10.9,22,9.5,22z
    M9.5,18c-0.8,0-1.5,0.7-1.5,1.5c0,0.8,0.7,1.5,1.5,1.5c0.8,0,1.5-0.7,1.5-1.5C11,18.7,10.3,18,9.5,18z" fill="white" />
  <path d="M20.5,22c-1.4,0-2.5-1.1-2.5-2.5c0-1.4,1.1-2.5,2.5-2.5c1.4,0,2.5,1.1,2.5,2.5C23,20.9,21.9,22,20.5,22z
    M20.5,18c-0.8,0-1.5,0.7-1.5,1.5c0,0.8,0.7,1.5,1.5,1.5c0.8,0,1.5-0.7,1.5-1.5C22,18.7,21.3,18,20.5,18z" fill="white" />
</svg> 